<?xml version="1.0" encoding="utf-8" standalone="no"?>
<!DOCTYPE svg PUBLIC "-//W3C//DTD SVG 1.1//EN"
  "http://www.w3.org/Graphics/SVG/1.1/DTD/svg11.dtd">
<svg height="166.32pt" version="1.1" viewBox="0 0 111.6 166.32" width="111.6pt" xmlns="http://www.w3.org/2000/svg" xmlns:xlink="http://www.w3.org/1999/xlink">
 <metadata>
  <rdf:RDF xmlns:cc="http://creativecommons.org/ns#" xmlns:dc="http://purl.org/dc/elements/1.1/" xmlns:rdf="http://www.w3.org/1999/02/22-rdf-syntax-ns#">
   <cc:Work>
    <dc:type rdf:resource="http://purl.org/dc/dcmitype/StillImage"/>
    <dc:date>2023-10-09T23:12:53.877133</dc:date>
    <dc:format>image/svg+xml</dc:format>
    <dc:creator>
     <cc:Agent>
      <dc:title>Matplotlib v3.4.3, https://matplotlib.org/</dc:title>
     </cc:Agent>
    </dc:creator>
   </cc:Work>
  </rdf:RDF>
 </metadata>
 <defs>
  <style type="text/css">*{stroke-linecap:butt;stroke-linejoin:round;}</style>
 </defs>
 <g id="figure_1">
  <g id="patch_1">
   <path d="M 0 166.32 
L 111.6 166.32 
L 111.6 0 
L 0 0 
z
" style="fill:#ffffff;"/>
  </g>
  <g id="axes_1">
   <g id="patch_2">
    <path clip-path="url(#p40fc544168)" d="M 55.8 149.688 
C 67.638666 149.688 78.994045 142.67819 87.365247 130.2024 
C 95.736448 117.72661 100.44 100.803432 100.44 83.16 
C 100.44 65.516568 95.736448 48.59339 87.365247 36.1176 
C 78.994045 23.64181 67.638666 16.632 55.8 16.632 
C 43.961334 16.632 32.605955 23.64181 24.234753 36.1176 
C 15.863552 48.59339 11.16 65.516568 11.16 83.16 
C 11.16 100.803432 15.863552 117.72661 24.234753 130.2024 
C 32.605955 142.67819 43.961334 149.688 55.8 149.688 
z
" style="fill:#008000;"/>
   </g>
  </g>
 </g>
 <defs>
  <clipPath id="p40fc544168">
   <rect height="166.32" width="111.6" x="0" y="-0"/>
  </clipPath>
 </defs>
</svg>
